<svg xmlns="http://www.w3.org/2000/svg" width="24" height="25" viewBox="0 0 24 25" fill="none">
<path d="M1.5 3.17361C1.5 2.77579 1.65804 2.39426 1.93934 2.11295C2.22064 1.83165 2.60218 1.67361 3 1.67361H6C6.39782 1.67361 6.77936 1.83165 7.06066 2.11295C7.34196 2.39426 7.5 2.77579 7.5 3.17361V6.17361C7.5 6.57144 7.34196 6.95297 7.06066 7.23427C6.77936 7.51558 6.39782 7.67361 6 7.67361H3C2.60218 7.67361 2.22064 7.51558 1.93934 7.23427C1.65804 6.95297 1.5 6.57144 1.5 6.17361V3.17361ZM9 3.17361C9 2.77579 9.15804 2.39426 9.43934 2.11295C9.72064 1.83165 10.1022 1.67361 10.5 1.67361H13.5C13.8978 1.67361 14.2794 1.83165 14.5607 2.11295C14.842 2.39426 15 2.77579 15 3.17361V6.17361C15 6.57144 14.842 6.95297 14.5607 7.23427C14.2794 7.51558 13.8978 7.67361 13.5 7.67361H10.5C10.1022 7.67361 9.72064 7.51558 9.43934 7.23427C9.15804 6.95297 9 6.57144 9 6.17361V3.17361ZM16.5 3.17361C16.5 2.77579 16.658 2.39426 16.9393 2.11295C17.2206 1.83165 17.6022 1.67361 18 1.67361H21C21.3978 1.67361 21.7794 1.83165 22.0607 2.11295C22.342 2.39426 22.5 2.77579 22.5 3.17361V6.17361C22.5 6.57144 22.342 6.95297 22.0607 7.23427C21.7794 7.51558 21.3978 7.67361 21 7.67361H18C17.6022 7.67361 17.2206 7.51558 16.9393 7.23427C16.658 6.95297 16.5 6.57144 16.5 6.17361V3.17361ZM1.5 10.6736C1.5 10.2758 1.65804 9.89426 1.93934 9.61295C2.22064 9.33165 2.60218 9.17361 3 9.17361H6C6.39782 9.17361 6.77936 9.33165 7.06066 9.61295C7.34196 9.89426 7.5 10.2758 7.5 10.6736V13.6736C7.5 14.0714 7.34196 14.453 7.06066 14.7343C6.77936 15.0156 6.39782 15.1736 6 15.1736H3C2.60218 15.1736 2.22064 15.0156 1.93934 14.7343C1.65804 14.453 1.5 14.0714 1.5 13.6736V10.6736ZM9 10.6736C9 10.2758 9.15804 9.89426 9.43934 9.61295C9.72064 9.33165 10.1022 9.17361 10.5 9.17361H13.5C13.8978 9.17361 14.2794 9.33165 14.5607 9.61295C14.842 9.89426 15 10.2758 15 10.6736V13.6736C15 14.0714 14.842 14.453 14.5607 14.7343C14.2794 15.0156 13.8978 15.1736 13.5 15.1736H10.5C10.1022 15.1736 9.72064 15.0156 9.43934 14.7343C9.15804 14.453 9 14.0714 9 13.6736V10.6736ZM16.5 10.6736C16.5 10.2758 16.658 9.89426 16.9393 9.61295C17.2206 9.33165 17.6022 9.17361 18 9.17361H21C21.3978 9.17361 21.7794 9.33165 22.0607 9.61295C22.342 9.89426 22.5 10.2758 22.5 10.6736V13.6736C22.5 14.0714 22.342 14.453 22.0607 14.7343C21.7794 15.0156 21.3978 15.1736 21 15.1736H18C17.6022 15.1736 17.2206 15.0156 16.9393 14.7343C16.658 14.453 16.5 14.0714 16.5 13.6736V10.6736ZM1.5 18.1736C1.5 17.7758 1.65804 17.3943 1.93934 17.113C2.22064 16.8316 2.60218 16.6736 3 16.6736H6C6.39782 16.6736 6.77936 16.8316 7.06066 17.113C7.34196 17.3943 7.5 17.7758 7.5 18.1736V21.1736C7.5 21.5714 7.34196 21.953 7.06066 22.2343C6.77936 22.5156 6.39782 22.6736 6 22.6736H3C2.60218 22.6736 2.22064 22.5156 1.93934 22.2343C1.65804 21.953 1.5 21.5714 1.5 21.1736V18.1736ZM9 18.1736C9 17.7758 9.15804 17.3943 9.43934 17.113C9.72064 16.8316 10.1022 16.6736 10.5 16.6736H13.5C13.8978 16.6736 14.2794 16.8316 14.5607 17.113C14.842 17.3943 15 17.7758 15 18.1736V21.1736C15 21.5714 14.842 21.953 14.5607 22.2343C14.2794 22.5156 13.8978 22.6736 13.5 22.6736H10.5C10.1022 22.6736 9.72064 22.5156 9.43934 22.2343C9.15804 21.953 9 21.5714 9 21.1736V18.1736ZM16.5 18.1736C16.5 17.7758 16.658 17.3943 16.9393 17.113C17.2206 16.8316 17.6022 16.6736 18 16.6736H21C21.3978 16.6736 21.7794 16.8316 22.0607 17.113C22.342 17.3943 22.5 17.7758 22.5 18.1736V21.1736C22.5 21.5714 22.342 21.953 22.0607 22.2343C21.7794 22.5156 21.3978 22.6736 21 22.6736H18C17.6022 22.6736 17.2206 22.5156 16.9393 22.2343C16.658 21.953 16.5 21.5714 16.5 21.1736V18.1736Z" fill="#6C7275"/>
</svg>