<svg xmlns="http://www.w3.org/2000/svg" width="20" height="21" viewBox="0 0 20 21" fill="none">
  <path fill-rule="evenodd" clip-rule="evenodd" d="M10.5772 5.93783C10.2547 6.24726 9.7456 6.24726 9.42316 5.93783L8.84616 5.38411C8.1708 4.73601 7.25844 4.34028 6.25016 4.34028C4.17909 4.34028 2.50016 6.01921 2.50016 8.09028C2.50016 10.0758 3.57498 11.7153 5.12663 13.0624C6.67959 14.4106 8.53633 15.3048 9.6457 15.7612C9.87766 15.8566 10.1227 15.8566 10.3546 15.7612C11.464 15.3048 13.3207 14.4106 14.8737 13.0624C16.4253 11.7153 17.5002 10.0758 17.5002 8.09028C17.5002 6.01921 15.8212 4.34028 13.7502 4.34028C12.7419 4.34028 11.8295 4.73601 11.1542 5.38411L10.5772 5.93783ZM10.0002 4.18159C9.02692 3.24762 7.70557 2.67361 6.25016 2.67361C3.25862 2.67361 0.833496 5.09874 0.833496 8.09028C0.833496 13.3972 6.64211 16.3278 9.01165 17.3025C9.6498 17.565 10.3505 17.565 10.9887 17.3025C13.3582 16.3278 19.1668 13.3972 19.1668 8.09028C19.1668 5.09874 16.7417 2.67361 13.7502 2.67361C12.2948 2.67361 10.9734 3.24762 10.0002 4.18159Z" fill="#6C7275"/>
</svg>